<?xml version="1.0" encoding="UTF-8"?>
<svg version="1.1" xmlns="http://www.w3.org/2000/svg" width="500" height="500">
<path d="M0 0 C1.30182976 -0.0049926 1.30182976 -0.0049926 2.62995911 -0.01008606 C4.4578092 -0.0151214 6.28566837 -0.01749544 8.11352539 -0.01733398 C10.86946269 -0.01951144 13.62499314 -0.03767881 16.38085938 -0.05664062 C50.11951904 -0.16868108 82.71839996 10.82743424 109.70703125 31.16796875 C110.50753906 31.76351562 111.30804688 32.3590625 112.1328125 32.97265625 C144.4257266 58.16014919 167.51889913 94.03308921 172.89453125 135.04296875 C178.45138782 184.08319942 161.33461528 229.79346082 131.39453125 268.12890625 C112.06161055 292.09367253 112.06161055 292.09367253 104.70703125 295.16796875 C102.28985596 295.40847778 102.28985596 295.40847778 99.57128906 295.39501953 C98.55053284 295.39486847 97.52977661 295.39471741 96.47808838 295.39456177 C95.38317078 295.3842392 94.28825317 295.37391663 93.16015625 295.36328125 C91.4706485 295.35903641 91.4706485 295.35903641 89.74700928 295.35470581 C86.15024179 295.34351249 82.55372346 295.31840912 78.95703125 295.29296875 C76.51823276 295.28293787 74.07943037 295.27381221 71.640625 295.265625 C65.66258723 295.2452777 59.6850881 295.20612656 53.70703125 295.16796875 C53.70703125 302.75796875 53.70703125 310.34796875 53.70703125 318.16796875 C55.9924585 318.1522583 58.27788574 318.13654785 60.63256836 318.12036133 C68.20812999 318.07051294 75.78369912 318.03745903 83.35938168 318.01253223 C87.94971881 317.99691795 92.53988702 317.97575763 97.13012695 317.94165039 C101.5651419 317.9089051 105.99999497 317.89108391 110.43512154 317.88333702 C112.12189848 317.87782062 113.80866719 317.86704877 115.49537468 317.85077858 C135.84775925 317.66237587 135.84775925 317.66237587 141.30577087 322.62019348 C144.44332158 326.22574773 145.8226318 328.76059179 145.89990234 333.4465332 C145.92399673 334.77349968 145.92399673 334.77349968 145.94857788 336.12727356 C145.9930284 340.17492927 146.03409266 344.22242097 146.05712891 348.27026367 C146.07368966 350.40514018 146.10098113 352.53996121 146.13916016 354.67456055 C146.19392458 357.75208305 146.21580238 360.82830586 146.23046875 363.90625 C146.25313812 364.85848953 146.2758075 365.81072906 146.29916382 366.79182434 C146.28474799 371.31429435 146.19352629 373.49332735 143.48681641 377.24682617 C139.16846108 380.23129289 135.14779187 380.29311719 129.9987793 380.28149414 C128.87799484 380.28141861 127.75721039 380.28134308 126.60246277 380.28126526 C125.40333755 380.27610397 124.20421234 380.27094269 122.96875 380.265625 C121.73284622 380.26421005 120.49694244 380.2627951 119.22358704 380.26133728 C115.9504478 380.25669493 112.67735838 380.24772186 109.40423584 380.2366333 C106.05920877 380.22637279 102.71417952 380.22191506 99.36914062 380.21679688 C92.81506459 380.20662921 86.26111166 380.18705213 79.70703125 380.16796875 C79.70703125 391.71796875 79.70703125 403.26796875 79.70703125 415.16796875 C83.90808594 415.13316406 88.10914063 415.09835937 92.4375 415.0625 C95.79335004 415.0431986 99.14918434 415.02693324 102.50505829 415.0127182 C106.04425752 414.99689522 109.58324021 414.97576072 113.12231445 414.94165039 C117.18573062 414.90273272 121.24891846 414.88824328 125.3125 414.875 C126.57724655 414.85951614 127.8419931 414.84403229 129.14506531 414.82807922 C130.91633537 414.82773933 130.91633537 414.82773933 132.72338867 414.82739258 C133.76041428 414.82073074 134.79743988 414.81406891 135.8658905 414.8072052 C139.19046808 415.22935479 141.02597344 416.18344112 143.70703125 418.16796875 C146.92171884 422.99000014 146.19540186 428.55524521 146.24243164 434.19946289 C146.26924064 436.33234801 146.34410112 438.46017179 146.41992188 440.59179688 C146.56432759 447.9340562 146.24276905 453.2997726 140.99975586 458.77856445 C135.36152407 462.19536534 129.02744071 462.44231845 122.60131836 462.23291016 C121.01277819 462.20049161 119.42423106 462.16841275 117.8356781 462.1366272 C117.00510832 462.11648182 116.17453854 462.09633644 115.31879997 462.0755806 C110.86081537 461.97889869 106.40217464 461.95393815 101.94335938 461.91796875 C96.29586198 461.87039851 90.65170452 461.80169031 85.00610352 461.64355469 C63.52344249 459.93885358 63.52344249 459.93885358 43.99853516 466.64086914 C40.68126055 469.829667 38.19030516 473.29462336 35.89833069 477.27003479 C34.07487621 480.17509465 31.80089998 482.12531411 29.20703125 484.35546875 C28.04494141 485.36673828 28.04494141 485.36673828 26.859375 486.3984375 C20.95154003 491.25551416 16.72814741 494.22829762 8.83984375 494.3984375 C3.25472444 493.79491728 -0.17428895 490.79892155 -4.10546875 487.04296875 C-4.62882813 486.55086914 -5.1521875 486.05876953 -5.69140625 485.55175781 C-6.74257945 484.55934183 -7.79033972 483.56329704 -8.83447266 482.56347656 C-10.11738479 481.33596974 -11.41317913 480.12195647 -12.7109375 478.91015625 C-13.74154297 477.92402344 -13.74154297 477.92402344 -14.79296875 476.91796875 C-15.38078125 476.3559375 -15.96859375 475.79390625 -16.57421875 475.21484375 C-21.78120996 469.01379058 -22.86911311 464.44001793 -22.69604492 456.53588867 C-22.69192596 455.5950795 -22.68780701 454.65427032 -22.68356323 453.68495178 C-22.67284061 451.65134244 -22.65335062 449.61776418 -22.62599754 447.58431053 C-22.58543959 444.35884025 -22.57417394 441.13447923 -22.57136536 437.9087677 C-22.55962725 428.74140439 -22.5071735 419.57478197 -22.40649414 410.40795898 C-22.34686254 404.79098361 -22.33127524 399.17526719 -22.34264565 393.55800819 C-22.33820571 391.42540708 -22.3170565 389.29276943 -22.27846336 387.16051292 C-21.63505082 373.54286444 -21.63505082 373.54286444 -27.69458008 361.97192383 C-29.19606534 360.66701298 -30.72510617 359.39232867 -32.29296875 358.16796875 C-33.81126666 356.34976014 -35.31606527 354.51995882 -36.79296875 352.66796875 C-40.40562705 348.20232168 -44.1819042 343.9351226 -48.05078125 339.69140625 C-50.33812779 337.11714517 -52.50845146 334.47507386 -54.66796875 331.79296875 C-58.83377135 326.64397847 -63.24844358 321.78170013 -67.74609375 316.92578125 C-71.00178432 313.4004476 -74.15515592 309.79798751 -77.29296875 306.16796875 C-78.26929433 305.04536683 -79.24588218 303.92299297 -80.22265625 302.80078125 C-83.04622966 299.55492008 -85.85995624 296.30068038 -88.67041016 293.04345703 C-90.1362469 291.34912092 -91.61005631 289.66214336 -93.0859375 287.9765625 C-121.00598048 255.85466079 -143.94032923 217.98908488 -149.29296875 175.16796875 C-149.48826172 173.6675 -149.48826172 173.6675 -149.6875 172.13671875 C-154.47779698 128.70469281 -138.40371057 89.26659669 -111.98046875 55.60546875 C-104.65064947 46.62052899 -104.65064947 46.62052899 -100.29296875 45.16796875 C-99.96296875 44.17796875 -99.63296875 43.18796875 -99.29296875 42.16796875 C-91.7470422 35.0030016 -82.86364188 29.03909199 -74.29296875 23.16796875 C-73.50921875 22.62398437 -72.72546875 22.08 -71.91796875 21.51953125 C-51.32893613 8.21019231 -24.4493623 0.03339396 0 0 Z M-41.29296875 107.16796875 C-55.1841182 123.10444082 -60.54478041 141.15873599 -59.45703125 162.02539062 C-57.9160588 182.149757 -48.10246716 198.9413427 -33.03515625 211.984375 C-17.66965768 224.2198646 1.42833962 228.57590534 20.7890625 226.703125 C36.1476979 224.60528547 49.17604186 218.42643809 60.70703125 208.16796875 C61.73763672 207.27851563 61.73763672 207.27851563 62.7890625 206.37109375 C73.62192226 196.37153089 79.19255683 184.21017682 82.70703125 170.16796875 C83.00673828 168.97107422 83.00673828 168.97107422 83.3125 167.75 C86.28259099 148.31207776 82.14255439 129.37398637 70.72265625 113.390625 C68.79297817 110.90373367 66.7948344 108.5230107 64.70703125 106.16796875 C64.165625 105.5440625 63.62421875 104.92015625 63.06640625 104.27734375 C50.34713467 90.57016759 32.03194318 84.09701284 13.67358398 83.05224609 C-7.251128 82.67312944 -27.18792303 92.11865219 -41.29296875 107.16796875 Z " fill="#0FBCBA" transform="translate(233.29296875,3.83203125)"/>
<path d="M0 0 C0 0.33 0 0.66 0 1 C-5.94 1.495 -5.94 1.495 -12 2 C-12 2.33 -12 2.66 -12 3 C-21.57 3 -31.14 3 -41 3 C-40.67 10.59 -40.34 18.18 -40 26 C-38.32679688 26.02505615 -36.65359375 26.0501123 -34.9296875 26.07592773 C-29.33381113 26.16062062 -23.73799738 26.24884072 -18.14221191 26.33933926 C-14.75726945 26.3939587 -11.37231804 26.44726415 -7.98730469 26.49731445 C20.83385452 26.92867327 20.83385452 26.92867327 34 28 C34 28.33 34 28.66 34 29 C24.12545646 29.1536749 14.2508474 29.30185663 4.3761158 29.4429636 C-0.2087748 29.50865429 -4.79362073 29.57625979 -9.37841797 29.64819336 C-13.80035939 29.71750213 -18.22234739 29.78184377 -22.64441299 29.84269524 C-24.33418542 29.86683005 -26.02393297 29.8927755 -27.71364975 29.92053413 C-30.07452246 29.95901366 -32.43540047 29.99114006 -34.79638672 30.02172852 C-35.49985229 30.03467453 -36.20331787 30.04762054 -36.92810059 30.06095886 C-41.77189568 30.11405216 -41.77189568 30.11405216 -44 29 C-44 19.76 -44 10.52 -44 1 C-29.32982139 -0.17361429 -14.71071368 -0.10077955 0 0 Z " fill="#08AFAD" transform="translate(328,296)"/>
<path d="M0 0 C0.86788651 -0.0033284 1.73577301 -0.0066568 2.62995911 -0.01008606 C4.4578092 -0.0151214 6.28566837 -0.01749544 8.11352539 -0.01733398 C10.86946269 -0.01951144 13.62499314 -0.03767881 16.38085938 -0.05664062 C28.80499191 -0.09732742 40.55660387 0.66783924 52.51953125 4.29296875 C54.29263672 4.82277344 54.29263672 4.82277344 56.1015625 5.36328125 C56.96136719 5.62882813 57.82117188 5.894375 58.70703125 6.16796875 C58.70703125 6.49796875 58.70703125 6.82796875 58.70703125 7.16796875 C54.51192934 6.78659585 50.44604012 6.32540653 46.32177734 5.44677734 C33.44330612 2.74866111 20.87981812 2.88829062 7.76953125 3.10546875 C4.48051196 3.1533449 1.19167258 3.1965421 -2.09754944 3.22767639 C-4.12651401 3.24741486 -6.15541221 3.27702224 -8.18406677 3.31761169 C-9.54302818 3.3323629 -9.54302818 3.3323629 -10.92944336 3.34741211 C-11.7264415 3.36090195 -12.52343964 3.37439178 -13.34458923 3.38829041 C-15.29296875 3.16796875 -15.29296875 3.16796875 -17.29296875 1.16796875 C-11.48939468 0.33711077 -5.85882131 0.00800222 0 0 Z " fill="#3ED2CF" transform="translate(233.29296875,3.83203125)"/>
<path d="M0 0 C0 0.33 0 0.66 0 1 C-1.98 1.33 -3.96 1.66 -6 2 C12.48 2.33 30.96 2.66 50 3 C50 3.33 50 3.66 50 4 C30.86 4 11.72 4 -8 4 C-8 15.88 -8 27.76 -8 40 C-10 38 -10 38 -10.22705078 34.37646484 C-10.22673357 32.82125311 -10.21540299 31.26601949 -10.1953125 29.7109375 C-10.1924826 28.89251373 -10.18965271 28.07408997 -10.18673706 27.23086548 C-10.17552532 24.61209607 -10.15041929 21.99366636 -10.125 19.375 C-10.11497147 17.60156743 -10.1058454 15.82812951 -10.09765625 14.0546875 C-10.07558278 9.70299374 -10.04104644 5.3515545 -10 1 C-6.78548731 -0.60725635 -3.56387464 -0.05748185 0 0 Z " fill="#76D1D0" transform="translate(319,380)"/>
<path d="M0 0 C2.25756045 2.80016216 3.73487682 5.42034072 5.04296875 8.765625 C5.39423828 9.65507813 5.74550781 10.54453125 6.10742188 11.4609375 C6.64206055 12.84152344 6.64206055 12.84152344 7.1875 14.25 C7.55552734 15.18585938 7.92355469 16.12171875 8.30273438 17.0859375 C9.20732631 19.38853516 10.10619401 21.6931989 11 24 C10.34 24.33 9.68 24.66 9 25 C8.34 24.34 7.68 23.68 7 23 C7 21.68 7 20.36 7 19 C6.01 19.66 5.02 20.32 4 21 C4.33 21.66 4.66 22.32 5 23 C3.68 23 2.36 23 1 23 C-1.1519437 19.77208445 -1.20086443 18.71599191 -1 15 C-1.66 15 -2.32 15 -3 15 C-3 12.36 -3 9.72 -3 7 C-2.34 7 -1.68 7 -1 7 C-1 7.66 -1 8.32 -1 9 C-0.34 9 0.32 9 1 9 C1 7.68 1 6.36 1 5 C0.34 5 -0.32 5 -1 5 C-0.67 3.35 -0.34 1.7 0 0 Z " fill="#15BBB8" transform="translate(389,89)"/>
<path d="M0 0 C6.32730841 -0.02512064 12.65458644 -0.04305421 18.98193359 -0.05493164 C21.1248424 -0.0598943 23.26774794 -0.06666659 25.41064453 -0.07543945 C39.30976959 -0.13082743 53.12599881 0.14278078 67 1 C67 1.33 67 1.66 67 2 C58.0010556 3.04622261 49.04643851 3.15917969 40 3.125 C38.91315414 3.12267365 38.91315414 3.12267365 37.80435181 3.12030029 C29.0951063 3.09842532 20.38868006 3.0312192 11.6875 2.625 C10.94306641 2.59422363 10.19863281 2.56344727 9.43164062 2.53173828 C5.77112315 2.32109246 3.20003786 1.74309229 0 0 Z " fill="#05AEAC" transform="translate(287,463)"/>
<path d="M0 0 C0.66 0 1.32 0 2 0 C1.85946128 2.62538284 1.71281053 5.25017427 1.5625 7.875 C1.52318359 8.62136719 1.48386719 9.36773437 1.44335938 10.13671875 C1.11328125 15.7734375 1.11328125 15.7734375 0 18 C-0.08639869 20.40838678 -0.11567764 22.78733881 -0.09765625 25.1953125 C-0.0962413 25.90275604 -0.09482635 26.61019958 -0.09336853 27.33908081 C-0.087766 29.60109669 -0.07521318 31.86301398 -0.0625 34.125 C-0.05748532 35.65755065 -0.05292236 37.19010286 -0.04882812 38.72265625 C-0.03779577 42.48180888 -0.02052952 46.24088772 0 50 C-0.66 50 -1.32 50 -2 50 C-5.01091924 38.57463679 -4.36522767 27.12653583 -3.125 15.5 C-3.04668945 14.75878906 -2.96837891 14.01757812 -2.88769531 13.25390625 C-2.34513311 8.65563963 -1.38392269 4.41924892 0 0 Z " fill="#25B5B3" transform="translate(87,128)"/>
<path d="M0 0 C-0.33 0.99 -0.66 1.98 -1 3 C-21.13 3 -41.26 3 -62 3 C-62.33 2.34 -62.66 1.68 -63 1 C-55.22878853 0.86932167 -47.45757259 0.73891278 -39.68635082 0.60884857 C-36.0779263 0.54844715 -32.46950339 0.48795267 -28.86108398 0.42724609 C-25.37924368 0.36867245 -21.89739937 0.31034249 -18.41555214 0.25218201 C-16.43964483 0.21911278 -14.46374176 0.1857907 -12.48783875 0.15246582 C-11.28682022 0.13244507 -10.0858017 0.11242432 -8.84838867 0.09179688 C-7.78915695 0.07403198 -6.72992523 0.05626709 -5.63859558 0.03796387 C-3.75921564 0.01092352 -1.87957446 0 0 0 Z " fill="#06ACA9" transform="translate(375,380)"/>
<path d="M0 0 C0.66 0 1.32 0 2 0 C2.8400974 6.59308436 3.19216518 13.04312369 3.1875 19.6875 C3.18814453 20.64414551 3.18878906 21.60079102 3.18945312 22.58642578 C3.13302275 30.20837341 2.43303463 37.50215808 1 45 C0.34 45 -0.32 45 -1 45 C-1.33 45.99 -1.66 46.98 -2 48 C-2 44.37 -2 40.74 -2 37 C-1.34 37 -0.68 37 0 37 C0 24.79 0 12.58 0 0 Z " fill="#33B8B6" transform="translate(404,139)"/>
<path d="M0 0 C2.44986932 2.44986932 2.25631311 3.137078 2.265625 6.5 C2.26820313 7.386875 2.27078125 8.27375 2.2734375 9.1875 C2.26570313 10.115625 2.25796875 11.04375 2.25 12 C2.25773437 12.928125 2.26546875 13.85625 2.2734375 14.8125 C2.27085937 15.699375 2.26828125 16.58625 2.265625 17.5 C2.26336914 18.3146875 2.26111328 19.129375 2.25878906 19.96875 C2 22 2 22 0 24 C-0.76797796 21.2670814 -1.12805332 18.83222214 -1.1328125 15.99609375 C-1.13410156 15.25552734 -1.13539063 14.51496094 -1.13671875 13.75195312 C-1.13285156 12.98818359 -1.12898438 12.22441406 -1.125 11.4375 C-1.12886719 10.66986328 -1.13273437 9.90222656 -1.13671875 9.11132812 C-1.130981 5.82072861 -1.04747031 3.14241093 0 0 Z " fill="#0EB4B2" transform="translate(318,148)"/>
<path d="M0 0 C-0.33 0.99 -0.66 1.98 -1 3 C-21.13 3 -41.26 3 -62 3 C-62.33 2.34 -62.66 1.68 -63 1 C-55.22878853 0.86932167 -47.45757259 0.73891278 -39.68635082 0.60884857 C-36.0779263 0.54844715 -32.46950339 0.48795267 -28.86108398 0.42724609 C-25.37924368 0.36867245 -21.89739937 0.31034249 -18.41555214 0.25218201 C-16.43964483 0.21911278 -14.46374176 0.1857907 -12.48783875 0.15246582 C-11.28682022 0.13244507 -10.0858017 0.11242432 -8.84838867 0.09179688 C-7.78915695 0.07403198 -6.72992523 0.05626709 -5.63859558 0.03796387 C-3.75921564 0.01092352 -1.87957446 0 0 0 Z " fill="#06ACA9" transform="translate(375,380)"/>
<path d="M0 0 C0.66 0 1.32 0 2 0 C2.8400974 6.59308436 3.19216518 13.04312369 3.1875 19.6875 C3.18814453 20.64414551 3.18878906 21.60079102 3.18945312 22.58642578 C3.13302275 30.20837341 2.43303463 37.50215808 1 45 C0.34 45 -0.32 45 -1 45 C-1.33 45.99 -1.66 46.98 -2 48 C-2 44.37 -2 40.74 -2 37 C-1.34 37 -0.68 37 0 37 C0 24.79 0 12.58 0 0 Z " fill="#33B8B6" transform="translate(404,139)"/>
<path d="M0 0 C2.44986932 2.44986932 2.25631311 3.137078 2.265625 6.5 C2.26820313 7.386875 2.27078125 8.27375 2.2734375 9.1875 C2.26570313 10.115625 2.25796875 11.04375 2.25 12 C2.25773437 12.928125 2.26546875 13.85625 2.2734375 14.8125 C2.27085937 15.699375 2.26828125 16.58625 2.265625 17.5 C2.26336914 18.3146875 2.26111328 19.129375 2.25878906 19.96875 C2 22 2 22 0 24 C-0.76797796 21.2670814 -1.12805332 18.83222214 -1.1328125 15.99609375 C-1.13410156 15.25552734 -1.13539063 14.51496094 -1.13671875 13.75195312 C-1.13285156 12.98818359 -1.12898438 12.22441406 -1.125 11.4375 C-1.12886719 10.66986328 -1.13273437 9.90222656 -1.13671875 9.11132812 C-1.130981 5.82072861 -1.04747031 3.14241093 0 0 Z " fill="#0EB4B2" transform="translate(318,148)"/>
<path d="M0 0 C0.33 0.99 0.66 1.98 1 3 C-5.27 2.67 -11.54 2.34 -18 2 C-18 1.67 -18 1.34 -18 1 C-11.95170514 0.10395632 -6.1105424 -0.11269443 0 0 Z " fill="#4AC5C4" transform="translate(364,322)"/>
<path d="M0 0 C18.48 0 36.96 0 56 0 C56.495 2.475 56.495 2.475 57 5 C56.505 4.01 56.505 4.01 56 3 C53.00525286 2.00175095 50.92654666 1.84675968 47.79418945 1.79467773 C46.73331619 1.77473251 45.67244293 1.75478729 44.579422 1.73423767 C43.43559555 1.71752518 42.2917691 1.70081268 41.11328125 1.68359375 C39.94113571 1.66281265 38.76899017 1.64203156 37.56132507 1.62062073 C33.81177714 1.55516182 30.06215837 1.49625704 26.3125 1.4375 C23.77277909 1.39431132 21.23306538 1.35069692 18.69335938 1.30664062 C12.46231478 1.19948414 6.23119949 1.0977108 0 1 C0 0.67 0 0.34 0 0 Z " fill="#0EAFAD" transform="translate(320,421)"/>
<path d="M0 0 C-0.33 1.32 -0.66 2.64 -1 4 C-5.75 5.125 -5.75 5.125 -8 4 C-2.25 0 -2.25 0 0 0 Z " fill="#35C1BF" transform="translate(164,25)"/>
<path d="M0 0 C0.66 0 1.32 0 2 0 C2 9.57 2 19.14 2 29 C1.01 29.33 0.02 29.66 -1 30 C-0.67 20.1 -0.34 10.2 0 0 Z " fill="#08B0AE" transform="translate(377,427)"/>
<path d="M0 0 C2.31 0.33 4.62 0.66 7 1 C4.65890118 2.56073255 2.43666597 3.86373867 -0.0625 5.125 C-1.10083984 5.65480469 -1.10083984 5.65480469 -2.16015625 6.1953125 C-4 7 -4 7 -6 7 C-6 6.01 -6 5.02 -6 4 C-4.7934375 3.566875 -4.7934375 3.566875 -3.5625 3.125 C-0.8673532 2.26737432 -0.8673532 2.26737432 0 0 Z " fill="#34BCB7" transform="translate(215,90)"/>
<path d="M0 0 C0.78375 0.33 1.5675 0.66 2.375 1 C4.84332497 2.11866511 4.84332497 2.11866511 7 2 C7 1.34 7 0.68 7 0 C7.66 0 8.32 0 9 0 C9 2.31 9 4.62 9 7 C7 6 7 6 5 5 C4.278125 4.690625 3.55625 4.38125 2.8125 4.0625 C1 3 1 3 0 0 Z " fill="#05B5B4" transform="translate(165,318)"/>
<path d="M0 0 C0.99 0.33 1.98 0.66 3 1 C-10.734375 15.578125 -10.734375 15.578125 -18 18 C-18 17.34 -18 16.68 -18 16 C-14.53846154 13 -14.53846154 13 -12 13 C-12 11.68 -12 10.36 -12 9 C-11.13375 8.87625 -11.13375 8.87625 -10.25 8.75 C-7.39201069 7.7973369 -6.07045412 6.13946926 -4 4 C-3.34 4 -2.68 4 -2 4 C-2 3.01 -2 2.02 -2 1 C-1.34 0.67 -0.68 0.34 0 0 Z " fill="#43D2CE" transform="translate(270,477)"/>
<path d="M0 0 C0.33 0.66 0.66 1.32 1 2 C0.34 2 -0.32 2 -1 2 C-1.33 2.99 -1.66 3.98 -2 5 C-3.65 5.33 -5.3 5.66 -7 6 C-7 6.66 -7 7.32 -7 8 C-7.66 8 -8.32 8 -9 8 C-7.60415208 4.62670085 -6.07634389 2.95767338 -3 1 C-2.01 0.67 -1.02 0.34 0 0 Z " fill="#10AEAB" transform="translate(151,34)"/>
<path d="M0 0 C0.495 1.485 0.495 1.485 1 3 C-2.0682638 3.89749822 -4.79269976 4.11711768 -7.984375 4.09765625 C-8.91894531 4.09443359 -9.85351562 4.09121094 -10.81640625 4.08789062 C-11.78449219 4.07951172 -12.75257813 4.07113281 -13.75 4.0625 C-14.73355469 4.05798828 -15.71710938 4.05347656 -16.73046875 4.04882812 C-19.15370791 4.03706483 -21.57682273 4.02062684 -24 4 C-24 3.67 -24 3.34 -24 3 C-26.97 2.67 -29.94 2.34 -33 2 C-33 1.67 -33 1.34 -33 1 C-28.78249212 0.85694335 -24.56496269 0.71454463 -20.34741211 0.57275391 C-18.9128357 0.52443202 -17.47826532 0.47593077 -16.04370117 0.42724609 C-13.98097266 0.35727469 -11.91822328 0.28794962 -9.85546875 0.21875 C-7.99378052 0.1559082 -7.99378052 0.1559082 -6.09448242 0.09179688 C-4.06365121 0.03155289 -2.03172457 0 0 0 Z " fill="#49C6C6" transform="translate(367,462)"/>
<path d="M0 0 C0 0.33 0 0.66 0 1 C-6.65919507 0.39461863 -13.16701004 -0.71312827 -19.73974609 -1.90673828 C-24.81627444 -2.8185474 -29.86068953 -3.53278996 -35 -4 C-25.31107778 -9.90059955 -9.98608844 -3.03729514 0 0 Z " fill="#40D6D3" transform="translate(292,10)"/>
<path d="M0 0 C2.52259061 1.97420135 2.9929808 2.96745642 3.6875 6.1875 C3.790625 7.115625 3.89375 8.04375 4 9 C4.66 9 5.32 9 6 9 C6 10.32 6 11.64 6 13 C5.34 13 4.68 13 4 13 C3.13372601 11.40233897 2.28233535 9.79660056 1.4375 8.1875 C0.96183594 7.29417969 0.48617187 6.40085938 -0.00390625 5.48046875 C-1 3 -1 3 0 0 Z " fill="#09AEA9" transform="translate(100,227)"/>
<path d="M0 0 C0.33 0.99 0.66 1.98 1 3 C1.99 2.67 2.98 2.34 4 2 C4 2.66 4 3.32 4 4 C3.34 4 2.68 4 2 4 C2 4.99 2 5.98 2 7 C2.66 7 3.32 7 4 7 C4 8.32 4 9.64 4 11 C2.68 11 1.36 11 0 11 C0.020625 10.071875 0.04125 9.14375 0.0625 8.1875 C0.15769604 4.97713989 0.15769604 4.97713989 -1 2 C-0.67 1.34 -0.34 0.68 0 0 Z " fill="#18BDC2" transform="translate(312,185)"/>
<path d="M0 0 C0.66 0.99 1.32 1.98 2 3 C1.125 6.1875 1.125 6.1875 0 9 C-1.32 9 -2.64 9 -4 9 C-4.25 6.75 -4.25 6.75 -4 4 C-2 1.6875 -2 1.6875 0 0 Z " fill="#2FBFC0" transform="translate(296,209)"/>
<path d="M0 0 C2.97 0.495 2.97 0.495 6 1 C6 1.66 6 2.32 6 3 C7.98 3.66 9.96 4.32 12 5 C11.67 5.66 11.34 6.32 11 7 C7.37 5.68 3.74 4.36 0 3 C0 2.01 0 1.02 0 0 Z " fill="#16B1A9" transform="translate(274,91)"/>
<path d="M0 0 C-0.33 0.66 -0.66 1.32 -1 2 C-3.28515625 2.6328125 -3.28515625 2.6328125 -6.0625 3.125 C-6.98160156 3.29257813 -7.90070313 3.46015625 -8.84765625 3.6328125 C-9.91306641 3.81457031 -9.91306641 3.81457031 -11 4 C-11 3.01 -11 2.02 -11 1 C-6.87831311 -0.62950412 -4.29299643 -1.26264601 0 0 Z " fill="#33BBB8" transform="translate(235,87)"/>
<path d="M0 0 C0.99 0 1.98 0 3 0 C3 0.66 3 1.32 3 2 C3.66 2 4.32 2 5 2 C5 3.32 5 4.64 5 6 C5.66 6 6.32 6 7 6 C6.67 6.66 6.34 7.32 6 8 C3.5625 7.375 3.5625 7.375 1 6 C0.1875 2.875 0.1875 2.875 0 0 Z " fill="#11B3B3" transform="translate(133,278)"/>
<path d="M0 0 C0.33 0 0.66 0 1 0 C1 2.31 1 4.62 1 7 C-0.32 7 -1.64 7 -3 7 C-3.33 7.66 -3.66 8.32 -4 9 C-4.66 8.34 -5.32 7.68 -6 7 C-5.02433888 5.83040013 -4.044375 4.66438823 -3.0625 3.5 C-2.51722656 2.8503125 -1.97195313 2.200625 -1.41015625 1.53125 C-0.71212891 0.77328125 -0.71212891 0.77328125 0 0 Z " fill="#2FBFBB" transform="translate(303,201)"/>
<path d="M0 0 C2 3 2 3 1.6875 5.0625 C1 7 1 7 0 9 C-0.99 9 -1.98 9 -3 9 C-2.5020163 5.26512223 -2.12508244 3.18762365 0 0 Z " fill="#21B9B9" transform="translate(96,101)"/>
<path d="M0 0 C5.03985731 0.44469329 7.37634988 2.71343362 11 6 C9.1875 6.625 9.1875 6.625 7 7 C6.01 6.34 5.02 5.68 4 5 C4 4.34 4 3.68 4 3 C3.34 3 2.68 3 2 3 C2 2.34 2 1.68 2 1 C1.34 0.67 0.68 0.34 0 0 Z " fill="#2BB5B3" transform="translate(342,37)"/>
<path d="M0 0 C0.33 0.66 0.66 1.32 1 2 C0.34 2 -0.32 2 -1 2 C-1.33 2.99 -1.66 3.98 -2 5 C-3.65 5.33 -5.3 5.66 -7 6 C-7 6.66 -7 7.32 -7 8 C-7.66 8 -8.32 8 -9 8 C-7.60415208 4.62670085 -6.07634389 2.95767338 -3 1 C-2.01 0.67 -1.02 0.34 0 0 Z " fill="#10AEAB" transform="translate(151,34)"/>
<path d="M0 0 C-0.33 0.99 -0.66 1.98 -1 3 C-4.63 3 -8.26 3 -12 3 C-12 2.34 -12 1.68 -12 1 C-3.96428571 -1.27678571 -3.96428571 -1.27678571 0 0 Z " fill="#36D3CF" transform="translate(216,7)"/>
<path d="M0 0 C-1.98 2.31 -3.96 4.62 -6 7 C-8 4 -8 4 -8 2 C-7.34 2 -6.68 2 -6 2 C-6 1.34 -6 0.68 -6 0 C-3 -1 -3 -1 0 0 Z " fill="#2AB9B7" transform="translate(196,108)"/>
<path d="M0 0 C2.95929119 2.75520215 5.03681826 5.46627288 7 9 C6.01 9.33 5.02 9.66 4 10 C0.06153846 5.69230769 0.06153846 5.69230769 -0.25 2.1875 C-0.1675 1.465625 -0.085 0.74375 0 0 Z " fill="#37BAB9" transform="translate(374,66)"/>
<path d="M0 0 C0 1.32 0 2.64 0 4 C0.66 4 1.32 4 2 4 C2 4.66 2 5.32 2 6 C1.401875 5.67 0.80375 5.34 0.1875 5 C-2.05386471 3.79212012 -2.05386471 3.79212012 -5 4 C-5.66 3.01 -6.32 2.02 -7 1 C-2.25 0 -2.25 0 0 0 Z " fill="#2DC3C1" transform="translate(142,284)"/>
<path d="M0 0 C0.99 0.33 1.98 0.66 3 1 C1.88121617 2.17262904 0.75476949 3.33795138 -0.375 4.5 C-1.00148438 5.1496875 -1.62796875 5.799375 -2.2734375 6.46875 C-4 8 -4 8 -6 8 C-5.34 6.68 -4.68 5.36 -4 4 C-3.34 4 -2.68 4 -2 4 C-2 3.01 -2 2.02 -2 1 C-1.34 0.67 -0.68 0.34 0 0 Z " fill="#63D2D1" transform="translate(270,477)"/>
<path d="M0 0 C0.66 0 1.32 0 2 0 C2 1.32 2 2.64 2 4 C1.34 4 0.68 4 0 4 C0 5.32 0 6.64 0 8 C-0.99 7.67 -1.98 7.34 -3 7 C-3.33 6.01 -3.66 5.02 -4 4 C-3.34 3.34 -2.68 2.68 -2 2 C-1.67 2.33 -1.34 2.66 -1 3 C-0.67 2.01 -0.34 1.02 0 0 Z " fill="#18B3B3" transform="translate(312,120)"/>
<path d="M0 0 C-1.25 1.5 -1.25 1.5 -3 3 C-4.32 3 -5.64 3 -7 3 C-7.33 3.66 -7.66 4.32 -8 5 C-8.99 4.67 -9.98 4.34 -11 4 C-7.35237315 0.18657193 -5.28949249 -0.11498897 0 0 Z " fill="#0BB2B0" transform="translate(180,19)"/>
<path d="M0 0 C1.125 1.625 1.125 1.625 2 4 C1.125 7.25 1.125 7.25 0 10 C-0.66 10 -1.32 10 -2 10 C-1.125 2.25 -1.125 2.25 0 0 Z " fill="#12A8A5" transform="translate(398,202)"/>
<path d="M0 0 C0.99 0.33 1.98 0.66 3 1 C2.34 1 1.68 1 1 1 C1 2.32 1 3.64 1 5 C-0.98 5.33 -2.96 5.66 -5 6 C-3.35 4.02 -1.7 2.04 0 0 Z " fill="#15B2AB" transform="translate(341,292)"/>
<path d="M0 0 C-0.99 1.485 -0.99 1.485 -2 3 C-4.1640625 3.29296875 -4.1640625 3.29296875 -6.625 3.1875 C-7.44226563 3.16042969 -8.25953125 3.13335937 -9.1015625 3.10546875 C-10.04128906 3.05326172 -10.04128906 3.05326172 -11 3 C-3.71428571 -1.85714286 -3.71428571 -1.85714286 0 0 Z " fill="#3EC3C2" transform="translate(274,226)"/>
<path d="M0 0 C2 3 2 3 2 6 C2.66 6 3.32 6 4 6 C4.625 7.8125 4.625 7.8125 5 10 C4.01 11.485 4.01 11.485 3 13 C2.49242138 11.58603098 1.99425075 10.16868271 1.5 8.75 C1.08234375 7.56664062 1.08234375 7.56664062 0.65625 6.359375 C0 4 0 4 0 0 Z " fill="#32BEBC" transform="translate(89,200)"/>
<path d="M0 0 C0.33 0.66 0.66 1.32 1 2 C1.99 2.33 2.98 2.66 4 3 C5.1875 5.5625 5.1875 5.5625 6 8 C5.01 8 4.02 8 3 8 C0.89229241 5.11165997 0 3.61537605 0 0 Z " fill="#19ACA8" transform="translate(178,189)"/>
<path d="M0 0 C3.91593446 0.78318689 7.36406635 2.39179858 11 4 C11 4.66 11 5.32 11 6 C6.14922412 4.88059018 3.222107 3.8665284 0 0 Z " fill="#63E0DE" transform="translate(231,492)"/>
<path d="M0 0 C1.65 0 3.3 0 5 0 C5 2 5 2 3.5 3.625 C3.005 4.07875 2.51 4.5325 2 5 C0.68 4.34 -0.64 3.68 -2 3 C-1.34 2.67 -0.68 2.34 0 2 C0 1.34 0 0.68 0 0 Z " fill="#32BFC0" transform="translate(185,338)"/>
<path d="M0 0 C1.98 0 3.96 0 6 0 C6 0.66 6 1.32 6 2 C6.66 2.33 7.32 2.66 8 3 C5.36 3 2.72 3 0 3 C0 2.01 0 1.02 0 0 Z " fill="#4FC9C7" transform="translate(248,230)"/>
<path d="M0 0 C3.37462715 0.54723683 5.08235 1.0549 8 3 C1.25 5.125 1.25 5.125 -1 4 C-0.67 2.68 -0.34 1.36 0 0 Z " fill="#2CC0BD" transform="translate(213,224)"/>
<path d="M0 0 C0.66 0 1.32 0 2 0 C2.36923077 5.53846154 2.36923077 5.53846154 0.5 7.875 C-0.2425 8.431875 -0.2425 8.431875 -1 9 C-1.125 2.25 -1.125 2.25 0 0 Z " fill="#12ABAD" transform="translate(92,110)"/>
<path d="M0 0 C2.15377564 2.62198774 3.40072174 4.64404172 4 8 C3.01 8 2.02 8 1 8 C1 7.01 1 6.02 1 5 C0.34 5 -0.32 5 -1 5 C-0.67 3.35 -0.34 1.7 0 0 Z " fill="#3CBCBB" transform="translate(389,89)"/>
<path d="M0 0 C2 3 2 3 2 7 C0.35 6.67 -1.3 6.34 -3 6 C-1.125 1.125 -1.125 1.125 0 0 Z " fill="#23B7B8" transform="translate(114,69)"/>
<path d="M0 0 C0.33 1.98 0.66 3.96 1 6 C-1.31 5.34 -3.62 4.68 -6 4 C-2.25 0 -2.25 0 0 0 Z " fill="#22B7B8" transform="translate(155,31)"/>
<path d="M0 0 C4.67692308 1.47692308 4.67692308 1.47692308 6.3125 4.125 C6.539375 4.74375 6.76625 5.3625 7 6 C6.34 6.66 5.68 7.32 5 8 C2.525 4.04 2.525 4.04 0 0 Z " fill="#34BDB9" transform="translate(301,114)"/>
<path d="M0 0 C0.33 0 0.66 0 1 0 C3 6.625 3 6.625 3 10 C0.9375 8.375 0.9375 8.375 -1 6 C-0.75 2.75 -0.75 2.75 0 0 Z " fill="#11B0A7" transform="translate(212,464)"/>
<path d="M0 0 C0.66 0 1.32 0 2 0 C2 0.66 2 1.32 2 2 C2.66 2 3.32 2 4 2 C4 2.66 4 3.32 4 4 C2.68 4 1.36 4 0 4 C-0.33 4.66 -0.66 5.32 -1 6 C-1.66 4.68 -2.32 3.36 -3 2 C-2.34 2 -1.68 2 -1 2 C-0.67 1.34 -0.34 0.68 0 0 Z " fill="#22C0C1" transform="translate(212,368)"/>
<path d="M0 0 C3.26460973 1.80412643 4.88929795 2.83394693 7 6 C6.01 6 5.02 6 4 6 C4 5.34 4 4.68 4 4 C2.68 4 1.36 4 0 4 C0 2.68 0 1.36 0 0 Z " fill="#33BAB3" transform="translate(370,324)"/>
<g>
<path d="M0 0 C0.99 0.33 1.98 0.66 3 1 C2.360625 1.268125 1.72125 1.53625 1.0625 1.8125 C-1.33131686 2.88667752 -1.33131686 2.88667752 -2 6 C-2.99 5.34 -3.98 4.68 -5 4 C-4.34 3.34 -3.68 2.68 -3 2 C-2.01 2 -1.02 2 0 2 C0 1.34 0 0.68 0 0 Z " fill="#13B8AD" transform="translate(253,490)"/>
<path d="M0 0 C2.25 0.25 2.25 0.25 4 1 C2.25 3.0625 2.25 3.0625 0 5 C-2.25 4.75 -2.25 4.75 -4 4 C-2.25 1.9375 -2.25 1.9375 0 0 Z " fill="#0AA6A4" transform="translate(373,458)"/>
<path d="M0 0 C1.32 0.66 2.64 1.32 4 2 C3.01 2 2.02 2 1 2 C1 2.99 1 3.98 1 5 C-0.32 4.67 -1.64 4.34 -3 4 C-3 3.34 -3 2.68 -3 2 C-2.01 1.34 -1.02 0.68 0 0 Z " fill="#0EB3AE" transform="translate(211,224)"/>
<path d="M0 0 C0.66 0.33 1.32 0.66 2 1 C1.34 3.31 0.68 5.62 0 8 C-0.66 8 -1.32 8 -2 8 C-1.125 1.125 -1.125 1.125 0 0 Z " fill="#31BBB6" transform="translate(395,213)"/>
<path d="M0 0 C3.465 1.98 3.465 1.98 7 4 C7 4.33 7 4.66 7 5 C4.625 5.125 4.625 5.125 2 5 C1.34 4.34 0.68 3.68 0 3 C0 2.01 0 1.02 0 0 Z " fill="#32BEBC" transform="translate(335,30)"/>
</g>
</svg>
